<svg xmlns="http://www.w3.org/2000/svg" xmlns:xlink="http://www.w3.org/1999/xlink" viewBox="0 0 456.65 149.83"><defs><clipPath id="a" transform="translate(4.24 4.22)"><path d="M144,72A72,72,0,1,1,72.21,0,72,72,0,0,1,144,72h0Zm-12.31,0A59.69,59.69,0,1,1,72.17,12.31,59.7,59.7,0,0,1,131.69,72h0Zm0.86,0" fill="none" clip-rule="evenodd"/></clipPath><clipPath id="b" transform="translate(4.24 4.22)"><path d="M123.24,89.94c0-2.81-3.45-4.22-4.27-5a15.14,15.14,0,0,1-3.25-5c-1.42-3.21-2.44-7.63-3.66-11.65-3.45-11.45-6.91-23.09-16.66-23.09-4.67,0-8.53,2.81-11.38,8.23A78.5,78.5,0,0,0,79,66.64a80,80,0,0,1-4.47,11.45c-1.22,2.41-2.44,3.21-2.84,3.41-2.64.2-3.86-1-7.11-5.62-3-4.42-7.31-10.44-15.84-10.44-8.73,0-13,6.83-16,12-3,5-4.67,6.83-7.31,7.43s-5.08,2.21-5.08,5,2.23,4.62,5.08,4.62c8.73,0,13-6.83,16-12,3-5,4.67-7,7.31-7,2.84,0,4.47,1.81,7.52,6.23,3.25,4.62,7.52,10.64,16.45,10,9.14-.8,12.59-11.45,16-21.69a114.4,114.4,0,0,1,4.47-11.45c1-2.41,1.83-2.21,2.44-2.21S97,56,98.46,59.82c1.22,3.21,2.84,7.63,4.06,11.65,3.45,11.45,6.91,23.09,16.66,23.09,2.23-.4,4.06-1.81,4.06-4.62h0Zm0,0" fill="none" clip-rule="evenodd"/></clipPath></defs><title>flood_logo_black</title><g clip-path="url(#a)"><rect width="149.83" height="149.83" fill="#4285f4"/></g><g clip-path="url(#b)"><rect x="20.33" y="45.22" width="111.31" height="57.72" fill="#4285f4"/></g><path d="M165.24,55.77q0-8.67,4.08-13.23T181.13,38l24.65,0.09v50q0,4.9.94,6.66a5.78,5.78,0,0,0,3.35,2.62,57.17,57.17,0,0,0,6.44,1.8v6.36h-9q-6.18,0-8.93-3.65t-2.75-12.58V46.06H183.11q-4,0-6,2.06t-1.93,7.64v4.12h11.17V68H175.12V105.5h-10V68H157.6v-6.7l7.64-1.46V55.77Z" transform="translate(4.24 4.22)" fill="#4285f4"/><path d="M224.43,100.73a16.52,16.52,0,0,1-3.44-7,52.94,52.94,0,0,1-1-12,35.87,35.87,0,0,1,2-13,12.85,12.85,0,0,1,6.36-7.26q4.34-2.1,12.24-2.1,11.68,0,16.1,5.15T261.1,83q0,13.18-4.42,18.08t-16.1,4.9a34,34,0,0,1-9.83-1.2A13.24,13.24,0,0,1,224.43,100.73Zm6.48-27.66a19.68,19.68,0,0,0-.77,4.21q-0.22,2.45-.22,5.88a53.67,53.67,0,0,0,.26,5.75,14.25,14.25,0,0,0,.9,3.87,10,10,0,0,0,1.42,2.49,5,5,0,0,0,2.06,1.46,17.82,17.82,0,0,0,5.37.69,35.66,35.66,0,0,0,4.68-.22,9.59,9.59,0,0,0,2.92-.94A4.5,4.5,0,0,0,249.68,94a22.82,22.82,0,0,0,1.46-8.85q0-5.41-.21-7.86a20,20,0,0,0-.77-4.21,10.38,10.38,0,0,0-1.25-2.75,4.26,4.26,0,0,0-2-1.5,14.54,14.54,0,0,0-5.32-.9A38.89,38.89,0,0,0,237,68a10.3,10.3,0,0,0-2.7.73,4.81,4.81,0,0,0-2.06,1.55A9.51,9.51,0,0,0,230.91,73.07Z" transform="translate(4.24 4.22)" fill="#4285f4"/><path d="M271.2,100.73a16.55,16.55,0,0,1-3.44-7,53,53,0,0,1-1-12,35.87,35.87,0,0,1,2-13,12.84,12.84,0,0,1,6.36-7.26q4.34-2.1,12.24-2.1,11.68,0,16.1,5.15T307.88,83q0,13.18-4.42,18.08t-16.1,4.9a34,34,0,0,1-9.83-1.2A13.25,13.25,0,0,1,271.2,100.73Zm6.49-27.66a19.67,19.67,0,0,0-.77,4.21q-0.21,2.45-.21,5.88a53.67,53.67,0,0,0,.26,5.75,14.29,14.29,0,0,0,.9,3.87,10,10,0,0,0,1.42,2.49,5,5,0,0,0,2.06,1.46,17.83,17.83,0,0,0,5.37.69,35.69,35.69,0,0,0,4.68-.22,9.6,9.6,0,0,0,2.92-.94A4.51,4.51,0,0,0,296.45,94a22.82,22.82,0,0,0,1.46-8.85q0-5.41-.21-7.86a19.89,19.89,0,0,0-.77-4.21,10.42,10.42,0,0,0-1.25-2.75,4.26,4.26,0,0,0-2-1.5,14.55,14.55,0,0,0-5.32-.9,38.87,38.87,0,0,0-4.64.13,10.29,10.29,0,0,0-2.71.73A4.8,4.8,0,0,0,279,70.33,9.48,9.48,0,0,0,277.69,73.07Z" transform="translate(4.24 4.22)" fill="#4285f4"/><path d="M313.51,82.91q0-14.17,4.21-19.33,3.52-4.38,10.74-4.38a42.76,42.76,0,0,1,14.95,3.18V38.07h9.88V105.5h-7.9l-2.06-4.81a25.56,25.56,0,0,1-6.66,3.61,22.29,22.29,0,0,1-8.2,1.72Q313.51,106,313.51,82.91Zm10,0.51q0,13.74,7,13.74a26.9,26.9,0,0,0,12.88-3.26V69.42a41.71,41.71,0,0,0-12.88-1.89,6.06,6.06,0,0,0-3.78,1.12Q323.47,71.14,323.47,83.42Z" transform="translate(4.24 4.22)" fill="#4285f4"/><path d="M384.89,105.5V42.63h10V105.5h-10Z" transform="translate(4.24 4.22)" fill="#4285f4"/><path d="M404.35,91.45A42.31,42.31,0,0,1,403,84.07q-0.43-4.25-.43-10a80.83,80.83,0,0,1,.64-10.61A46.22,46.22,0,0,1,405,55.21a20,20,0,0,1,2.92-5.8,17.37,17.37,0,0,1,3.74-3.78,15.05,15.05,0,0,1,4.68-2.15A34.55,34.55,0,0,1,426,42.2q5.15,0,7.69.26a32.24,32.24,0,0,1,5.32,1,14.48,14.48,0,0,1,4.68,2.15,17.16,17.16,0,0,1,3.65,3.78,19.26,19.26,0,0,1,2.79,5.75q2.32,7.47,2.32,19.32,0,17.26-4.9,24a15.69,15.69,0,0,1-8.25,6q-6.7,2-17.26,1.2-6-.43-8.46-1.8a23.1,23.1,0,0,1-4.21-3,12.87,12.87,0,0,1-2.92-4A33.55,33.55,0,0,1,404.35,91.45Zm8.93-28.77q-0.3,2.28-.51,5.2t-0.22,6.83q0,3.91.22,7a44.44,44.44,0,0,0,.69,5.45,14.14,14.14,0,0,0,1.33,4,11.33,11.33,0,0,0,1.93,2.66,7.31,7.31,0,0,0,2.71,1.68,25.25,25.25,0,0,0,7.86,1,26.44,26.44,0,0,0,7.43-.82,8.91,8.91,0,0,0,4.51-3.22,14.69,14.69,0,0,0,2.53-6.66,62.3,62.3,0,0,0,.69-9.83q0-5.58-.17-8.72a35.29,35.29,0,0,0-.69-5.5q-0.52-2.36-1.07-4.08a7.27,7.27,0,0,0-1.63-2.83,12.22,12.22,0,0,0-2.06-1.76,7.74,7.74,0,0,0-2.62-1,27.46,27.46,0,0,0-5.54-.51q-3,0-4.25,0a21.89,21.89,0,0,0-2.75.3,9.47,9.47,0,0,0-2.45.69,13,13,0,0,0-2,1.25,5.55,5.55,0,0,0-1.72,2q-0.6,1.2-1.25,2.88A17.46,17.46,0,0,0,413.29,62.68Z" transform="translate(4.24 4.22)" fill="#4285f4"/></svg>
