<?xml version="1.0" encoding="utf-8"?>
<!-- Generator: Adobe Illustrator 17.0.0, SVG Export Plug-In . SVG Version: 6.00 Build 0)  -->
<!DOCTYPE svg PUBLIC "-//W3C//DTD SVG 1.1//EN" "http://www.w3.org/Graphics/SVG/1.1/DTD/svg11.dtd">
<svg version="1.1" id="Layer_1" xmlns="http://www.w3.org/2000/svg" xmlns:xlink="http://www.w3.org/1999/xlink" x="0px" y="0px"
	 width="1067px" height="128.755px" viewBox="0 0 1067 128.755" enable-background="new 0 0 1067 128.755" xml:space="preserve">
<polygon fill="#FFFFFF" points="127.301,0 42.434,0 42.434,42.434 0,42.434 0,127.301 84.867,127.301 84.867,84.867 127.301,84.867 
	"/>
<polygon fill="#9CE1F3" enable-background="new    " points="0,42.434 0,84.867 42.434,84.867 42.434,127.301 84.867,127.301 
	84.867,42.434 "/>
<path fill="#263746" d="M151.12,109.717l18.457-14.534c5.232,9.011,13.515,14.242,22.962,14.242
	c10.319,0,15.841-6.685,15.841-13.952c0-8.719-10.609-11.481-21.945-14.968c-14.242-4.36-30.083-9.883-30.083-30.228
	c0-17.004,14.824-30.519,35.315-30.519c17.294,0,27.176,6.54,35.751,15.405l-16.713,12.644c-4.36-6.54-10.609-10.028-18.893-10.028
	c-9.446,0-14.532,5.087-14.532,11.772c0,8.138,10.173,10.9,21.508,14.678c14.388,4.651,30.664,11.045,30.664,31.391
	c0,16.858-13.37,33.135-36.768,33.135C173.5,128.754,160.712,120.616,151.12,109.717z M313.683,54.637h19.764v8.138
	c4.651-5.958,11.772-9.592,20.055-9.592c17.149,0,27.467,11.045,27.467,29.792V127.3h-20.2V85.592
	c0-9.737-4.505-15.405-13.37-15.405c-7.557,0-13.806,5.232-13.806,17.44v39.675h-19.91V54.637z M385.641,90.969
	c0-25.723,18.893-37.786,35.315-37.786c9.446,0,16.858,3.488,21.654,8.574V21.211h19.91V127.3h-19.91v-8.139
	c-4.796,5.668-12.498,9.592-21.945,9.592C405.26,128.754,385.641,116.547,385.641,90.969z M443.191,90.823
	c0-10.754-7.848-19.474-18.602-19.474c-11.045,0-19.474,8.284-19.474,19.474s8.429,19.62,19.474,19.62
	C435.343,110.443,443.191,101.577,443.191,90.823z M467.19,74.256c0-30.228,22.816-54.498,54.207-54.498
	c15.701,0,28.905,5.653,38.465,14.663c3.891,3.667,7.178,7.889,9.784,12.513l-17.73,10.754
	c-6.54-12.062-16.567-18.311-30.374-18.311c-19.328,0-34.297,15.841-34.297,34.879c0,19.474,14.678,34.879,35.025,34.879
	c15.405,0,26.304-8.72,30.083-22.235h-33.28V67.571h55.079v8.138c0,28.485-20.346,53.045-51.882,53.045
	C489.135,128.754,467.19,103.613,467.19,74.256z M579.198,54.637h19.764v11.917c3.633-7.557,10.173-11.917,20.055-11.917h7.993
	l-7.219,19.329h-5.425c-10.609,0-15.26,5.523-15.26,19.038v34.297h-19.91V54.637H579.198z M632.236,54.637h19.91v72.664h-19.91
	V73.967l-7.226-0.001L632.236,54.637z M642.191,43.577c6.577,0,11.909-5.332,11.909-11.91c0-6.577-5.332-11.909-11.909-11.909
	c-6.578,0-11.91,5.332-11.91,11.909C630.281,38.245,635.613,43.577,642.191,43.577z M656.817,90.969
	c0-25.723,18.893-37.786,35.315-37.786c9.446,0,16.858,3.488,21.654,8.574V21.211h19.91V127.3h-19.91v-8.139
	c-4.796,5.668-12.498,9.592-21.945,9.592C676.436,128.754,656.817,116.547,656.817,90.969z M714.366,90.823
	c0-10.754-7.847-19.474-18.602-19.474c-11.045,0-19.474,8.284-19.474,19.474s8.429,19.62,19.474,19.62
	C706.519,110.443,714.366,101.577,714.366,90.823z M309.027,90.823c0-20.927-15.259-37.64-37.494-37.64
	c-20.927,0-37.785,16.858-37.785,37.786c0,20.927,15.696,37.785,38.366,37.785c15.702,0,26.995-7.574,33.349-18.431l-15.792-9.417
	c-3.35,6.429-9.78,10.409-17.411,10.409c-10.463,0-17.003-5.232-19.329-13.225h56.096V90.823z M253.803,82.104
	c3.052-6.83,9.446-11.481,17.876-11.481c8.429,0,14.678,3.924,17.294,11.481H253.803z"/>
<rect x="0" y="84.867" fill="#1A82E2" width="42.434" height="42.434"/>
<polygon fill="#00B3E3" points="84.867,42.434 84.867,0 42.434,0 42.434,42.434 42.434,84.867 84.867,84.867 127.301,84.867 
	127.301,42.434 "/>
<rect x="84.867" y="0" fill="#1A82E2" width="42.434" height="42.434"/>
<g>
	<path fill="#263746" d="M775.406,21.448h15.806v90.772h42.776v15.081h-58.582V21.448z"/>
	<path fill="#263746" d="M838.335,91.05c0-23.201,17.256-37.702,36.252-37.702c9.57,0,18.705,4.205,24.07,10.875v-9.425h15.516
		V127.3h-15.516v-10.006c-5.51,7.105-14.646,11.455-24.216,11.455C856.026,128.75,838.335,114.106,838.335,91.05z M899.527,90.905
		c0-12.905-9.716-23.49-22.911-23.49c-12.905,0-22.91,10.295-22.91,23.49s10.005,23.636,22.91,23.636
		C889.812,114.54,899.527,103.955,899.527,90.905z"/>
	<path fill="#263746" d="M942.444,117.441v9.86h-15.226V21.448h15.371v43.066c5.364-6.815,14.354-11.166,24.07-11.166
		c18.995,0,36.106,14.5,36.106,37.702c0,23.056-17.546,37.7-35.962,37.7C957.09,128.75,947.81,124.546,942.444,117.441z
		 M987.396,90.905c0-13.195-10.005-23.49-22.91-23.49c-13.051,0-22.766,10.585-22.766,23.49c0,13.051,9.715,23.636,22.766,23.636
		C977.391,114.54,987.396,104.1,987.396,90.905z"/>
	<path fill="#263746" d="M1006.823,111.93l13.92-7.25c3.915,6.67,10.296,10.586,18.56,10.586c8.7,0,13.195-4.495,13.195-9.57
		c0-5.801-8.41-7.105-17.545-8.99c-12.325-2.61-25.086-6.671-25.086-21.606c0-11.455,10.875-22.041,27.985-21.896
		c13.485,0,23.491,5.365,29.146,14.065l-12.905,7.105c-3.335-5.075-8.99-8.266-16.241-8.266c-8.265,0-12.47,4.061-12.47,8.7
		c0,5.221,6.67,6.671,17.11,8.99c11.891,2.61,25.376,6.525,25.376,21.606c0,10.005-8.7,23.49-29.291,23.345
		C1023.498,128.75,1012.913,122.66,1006.823,111.93z"/>
</g>
<rect x="42.433" y="42.433" fill="#199FD7" width="42.434" height="42.434"/>
</svg>
