<svg xmlns="http://www.w3.org/2000/svg" id="Ebene_1" viewBox="0 0 440 76.7"><style>.st0{fill:#282828}</style><path d="M60 22.7s-20.3-.3-20.7-.1c-.4.2-.8.3-.8 1.4 0 1.1-.4 1.2-1.2 1.2-.7 0-1.4.2-1.7.5-.3.3-1 .6-2.6.5-1.5 0-10.9-.1-10.9-.1s-4.7-.3-4.3.7c.4.9 3.1 5 7.4 7.3 4.3 2.3 9.8 3.2 10.5 3.4.7.2 4.6.6 5.6 2.7s.8 4.5-1 6.5c-1.7 1.9-6.6 3.5-7 4.1-.4.6-.4 1.2-.4 2.5v3.1l8 .1s1.8-3.5 8.1-3.2c6.3.3 7.4 3.4 7.4 3.4l8 .1v-5.6s-2.6-3.8-3.3-4c-.7-.2-3.4-1.2-3.4-1.2s1.1 2 2 2.6c.8.7 1.9 1.5 1.9 1.5s-6.6-2-6.6-8.3c0-6.3 6.1-8.9 7.5-9.5 1.3-.6 3.5-1.3 5.6-1.6 2.1-.3 4.5-.2 5.2-1.2.7-1 1.1-2.6 1-4.4-.1-1.7-.1-2-1.4-2.1-1.3-.1-12.9-.3-12.9-.3" class="st0"/><path d="M40.1 45.6s-.9 1.3-2.9 2.4c-2.1 1.1-3.5 1.5-3.5 1.5s1.4-2.4 1.9-2.8c.5-.3 4.5-1.1 4.5-1.1m57.3 8.3c-2.8 0-5.8-.6-7.9-1.6l.9-4.2c2.2.7 4.5 1.2 7 1.2 2.8 0 3.4-.6 3.4-2.6 0-2.2-.1-2.5-4.1-3.3-5.9-1.3-6.8-2.4-6.8-7.7 0-4.9 1.7-6.8 8.4-6.8 2.1 0 4.7.2 7.4.8l-.5 4.6c-2.8-.5-4.6-.7-6.8-.7-2.5 0-3 .4-3 2.2 0 2.3.1 2.4 3.9 3.3 6.6 1.6 6.9 2.9 6.9 7.7.1 4.8-1.4 7.1-8.8 7.1zm31.3-19.8v19.5h-5.5V34.1h-6.6v-4.9h18.6v4.9h-6.5zm35.7 12.4c0 3.7-2.6 7.5-9.4 7.5-6.9 0-9.4-3.8-9.4-7.5V36.3c0-3.7 2.6-7.5 9.4-7.5 6.9 0 9.4 3.8 9.4 7.5v10.2zm-5.5-9.7c0-1.9-1.2-3.1-3.9-3.1s-4 1.2-4 3.1V46c0 1.9 1.2 3.1 4 3.1 2.7 0 3.9-1.2 3.9-3.1v-9.2zm26.8 9.2h-3.2v7.6H177V29.2h10.1c5.9 0 8.1 2.3 8.1 6.9v3c0 3-1.1 5.1-3.5 6.1l5.9 8.3h-6.5l-5.4-7.5zm4.1-9.4c0-1.8-.7-2.6-2.9-2.6h-4.4v7.2h4.4c2.3 0 2.9-.8 2.9-2.7v-1.9zm24.5 3.4l-.4 13.5h-5.3l1-24.4h5.5l5.9 15.5 5.9-15.5h5.5l1 24.4H228l-.3-13.5-4.2 10.4h-4.9L214.3 40zm31.8 13.6V29.2h15.5v4.9h-10v5.2h9.2v4.9h-9.2v9.4h-5.5zm45.5-7.1c0 3.7-2.6 7.5-9.4 7.5-6.9 0-9.4-3.8-9.4-7.5V36.3c0-3.7 2.6-7.5 9.4-7.5 6.9 0 9.4 3.8 9.4 7.5v10.2zm-5.4-9.7c0-1.9-1.2-3.1-3.9-3.1s-4 1.2-4 3.1V46c0 1.9 1.2 3.1 4 3.1 2.7 0 3.9-1.2 3.9-3.1v-9.2zm26.7 9.2h-3.2v7.6h-5.5V29.2h10.1c5.9 0 8.1 2.3 8.1 6.9v3c0 3-1.1 5.1-3.5 6.1l5.9 8.3h-6.5l-5.4-7.5zm4.1-9.4c0-1.8-.7-2.6-2.9-2.6h-4.3v7.2h4.3c2.3 0 2.9-.8 2.9-2.7v-1.9zm27 17.3c-5.9 0-8.9-3-8.9-7.5V36.3c0-4.5 3-7.5 8.9-7.5 2.8 0 5.7.4 7.8.8l-.7 4.8c-2.1-.3-5.4-.6-7.1-.6-2.7 0-3.4 1.4-3.4 3.3v8.4c0 1.9.7 3.5 3.4 3.5 1.1 0 1.8 0 3.3-.2v-7.5h5.2v11.5c-2.8.7-5.7 1.1-8.5 1.1zm21.4-.3V29.2h15.3v4.9h-9.8v4.5h9.1v4.9h-9.1v5.3h9.8v4.9h-15.3zM402 46h-3.2v7.6h-5.5V29.2h10.1c5.9 0 8.1 2.3 8.1 6.9v3c0 3-1.1 5.1-3.5 6.1l5.9 8.3h-6.5L402 46zm4-9.4c0-1.8-.7-2.6-2.9-2.6h-4.4v7.2h4.4c2.3 0 2.9-.8 2.9-2.7v-1.9z" class="st0"/></svg>